<svg xmlns="http://www.w3.org/2000/svg" viewBox="0 0 32 32">
  <!-- Legs left -->
  <line x1="10" y1="16" x2="4" y2="12" stroke="#1a1a1a" stroke-width="1.5" stroke-linecap="round"/>
  <line x1="10" y1="18" x2="3" y2="18" stroke="#1a1a1a" stroke-width="1.5" stroke-linecap="round"/>
  <line x1="11" y1="20" x2="4" y2="24" stroke="#1a1a1a" stroke-width="1.5" stroke-linecap="round"/>
  <!-- Legs right -->
  <line x1="22" y1="16" x2="28" y2="12" stroke="#1a1a1a" stroke-width="1.5" stroke-linecap="round"/>
  <line x1="22" y1="18" x2="29" y2="18" stroke="#1a1a1a" stroke-width="1.5" stroke-linecap="round"/>
  <line x1="21" y1="20" x2="28" y2="24" stroke="#1a1a1a" stroke-width="1.5" stroke-linecap="round"/>
  <!-- Abdomen -->
  <ellipse cx="16" cy="23" rx="6" ry="7" fill="#2d2d2d"/>
  <!-- Thorax -->
  <ellipse cx="16" cy="16" rx="4.5" ry="4" fill="#3a3a3a"/>
  <!-- Head -->
  <ellipse cx="16" cy="9" rx="4" ry="3.5" fill="#2d2d2d"/>
  <!-- Eyes -->
  <circle cx="14.2" cy="8" r="0.9" fill="#e04040"/>
  <circle cx="17.8" cy="8" r="0.9" fill="#e04040"/>
  <!-- Antennae -->
  <path d="M14.5 6.5 Q11 2 9 1" stroke="#1a1a1a" stroke-width="1.2" fill="none" stroke-linecap="round"/>
  <path d="M17.5 6.5 Q21 2 23 1" stroke="#1a1a1a" stroke-width="1.2" fill="none" stroke-linecap="round"/>
  <circle cx="9" cy="1" r="1" fill="#1a1a1a"/>
  <circle cx="23" cy="1" r="1" fill="#1a1a1a"/>
</svg>
